<svg xmlns="http://www.w3.org/2000/svg" width="1200" height="1200" viewBox="0 0 1200 1200"><defs><radialGradient id="g" cx="50%" cy="28%" r="55%"><stop stop-color="#22d3ee" stop-opacity=".45"/><stop offset=".45" stop-color="#4f46e5" stop-opacity=".28"/><stop offset="1" stop-color="#030712"/></radialGradient><linearGradient id="l" x1="0" x2="1"><stop stop-color="#22d3ee"/><stop offset="1" stop-color="#8b5cf6"/></linearGradient></defs><rect width="1200" height="1200" fill="url(#g)"/><g fill="none" stroke="url(#l)" stroke-width="12" stroke-linecap="round" stroke-linejoin="round"><path d="M600 142 790 252v220L600 582 410 472V252z"/><path d="M600 210v420M505 308l95-55 95 55M505 308v110l95 55 95-55V308M445 390l60 28M755 390l-60 28"/></g><g fill="#22d3ee" stroke="#8b5cf6" stroke-width="5"><circle cx="600" cy="210" r="20"/><circle cx="505" cy="308" r="20"/><circle cx="695" cy="308" r="20"/><circle cx="505" cy="418" r="20"/><circle cx="695" cy="418" r="20"/><circle cx="600" cy="473" r="20"/><circle cx="600" cy="630" r="20"/><circle cx="445" cy="390" r="20"/><circle cx="755" cy="390" r="20"/></g><text x="600" y="820" text-anchor="middle" font-family="Arial, sans-serif" font-size="132" fill="#f8fafc" letter-spacing="12">Fromvill</text><text x="600" y="930" text-anchor="middle" font-family="Arial, sans-serif" font-size="34" fill="#38bdf8" letter-spacing="15">AI • RESEARCH • INNOVATION</text></svg>
